<?xml version="1.0" encoding="UTF-8"?>
<svg id="Layer_1" xmlns="http://www.w3.org/2000/svg" version="1.1" xmlns:xlink="http://www.w3.org/1999/xlink" viewBox="0 0 432 432">
  <!-- Generator: Adobe Illustrator 30.3.0, SVG Export Plug-In . SVG Version: 2.1.3 Build 182)  -->
  <defs>
    <style>
      .st0 {
        fill: url(#linear-gradient2);
      }

      .st1 {
        fill: url(#linear-gradient10);
      }

      .st2 {
        fill: #fff;
      }

      .st3 {
        mask: url(#mask);
      }

      .st4 {
        fill: url(#linear-gradient1);
      }

      .st5 {
        fill: url(#linear-gradient9);
      }

      .st6 {
        fill: url(#linear-gradient8);
      }

      .st7 {
        fill: url(#linear-gradient7);
      }

      .st8 {
        fill: url(#linear-gradient4);
      }

      .st9 {
        fill: url(#linear-gradient5);
      }

      .st10 {
        fill: url(#linear-gradient3);
      }

      .st11 {
        fill: url(#linear-gradient6);
      }

      .st12 {
        fill: url(#linear-gradient);
      }
    </style>
    <mask id="mask" x="79.8" y="16.1" width="275.9" height="231.7" maskUnits="userSpaceOnUse">
      <g>
        <path class="st2" d="M160.5,55.2c0-1.2-1-2.1-2.1-2.1h-50.6c-3.3,0-6,2.7-6,6v160.3c0,3.3,2.7,6,6,6h46.8c3.3,0,6-2.7,6-6v-91.1c0-1.2-1-2.1-2.1-2.1s-2.1,1-2.1,2.1v91.1c0,.9-.8,1.7-1.7,1.7h-46.8c-.9,0-1.7-.8-1.7-1.7V59c0-.9.8-1.7,1.7-1.7h50.6c1.2,0,2.1-1,2.1-2.1Z"/>
        <rect class="st2" x="114.2" y="65.5" width="39.3" height="5.5" rx="2" ry="2"/>
        <rect class="st2" x="114.2" y="74.3" width="39.3" height="5.5" rx="2" ry="2"/>
        <rect class="st2" x="114.2" y="83.1" width="39.3" height="5.5" rx="2" ry="2"/>
        <path class="st2" d="M111.5,123.6c-1.2,0-2.1.9-2.1,2.1v34.7c0,1.2.9,2.1,2.1,2.1h6.5c1.2,0,2.1-.9,2.1-2.1v-34.7c0-1.2-.9-2.1-2.1-2.1h-6.5ZM116.8,154.4c0,1.1-.9,2-2,2s-2-.9-2-2v-16.1c0-1.1.9-2,2-2s2,.9,2,2v16.1Z"/>
        <path class="st2" d="M273.4,80.7c2.4,5,4.9,10.1,6.3,15.8,1.1,4.6,1.3,9.2,1.5,13.6.3,6.9.5,12.9,3.9,17.3,3.7,4.8,9.8,7.5,16,7,6.1-.4,11.7-4,14.6-9.4,1.1-1.9,1.6-4.2,1.8-7.2.1-2.5,0-5.2-.2-8-.3-5.7-.7-12.1,1.5-18.6,1.6-4.8,3.8-8.8,5.8-12.7,3.3-6.2,6-11.2,5.9-17.8,0-.4,0-.8,0-1.2-1-16.1-14.5-28.9-30.9-29.1-8.6-.1-16.7,3.1-22.8,9-6.1,6-9.4,13.9-9.3,22.3,0,6.4,3,12.4,6,18.8ZM298.8,43.2c7.9.2,13,6.3,14.2,13.5.7,4.1,1.3,9.5,0,13.5-1.5,5-4.9,9.2-7.7,13.5-1.8,2.9-3.6,6-5.1,9-1.4,3.1-2.4,6.5-2.2,10.1-1.2-3.4-1.2-7.2-.6-10.8.5-3.1,1.3-6.3,2.3-9.3.6-1.8,1.3-3.6,2-5.3,1.1-2.8-.5-5.1-3.6-5.1-.7,0-1.5,0-2.2-.2-6.3-1-11.3-6-12.2-12.2-1.3-9,6-16.7,15-16.5Z"/>
        <path class="st2" d="M296.8,65.9c6,1.1,11.1-4.1,9.9-10-.7-3.3-3.4-5.9-6.8-6.5-6-1.1-11.2,4.1-9.9,10,.7,3.3,3.4,5.9,6.8,6.5Z"/>
        <path class="st2" d="M326.5,205.3v-10.8c-.1,0,11.2-.1,11.2-.1v-11.3c-.1,0-11.5.1-11.5.1v-11c-.1,0-11.4.1-11.4.1l-.3-28.3c5.4-2.8,10-7.1,13-12.5,2-3.6,3.2-7.8,3.4-12.8.2-3.2,0-6.4-.2-9.4-.3-5-.5-9.6.8-13.7,1.3-3.8,3.1-7.2,5-10.7,3.7-7,8-15,7.3-25.8-1.4-22.9-20.7-41.2-44.1-41.5-12.3-.2-23.8,4.4-32.5,12.8-2,2-3.9,4.2-5.5,6.4h-.1l-13,12.2-34.7,32.6-34.7-32.6-13-12.2h-67c-7.8,0-14.1,6.3-14.1,14.1v175.6c0,7.8,6.3,14.1,14.1,14.1h65.9c7.8,0,14.1-6.3,14.1-14.1v-60.6l34.7,32.6,34.7-32.6v60.6c0,7.8,6.3,14.1,14.1,14.1h29.8l5.4,5.6c1.1,1.1,2.8,1.2,4,.2l12.3-10.4c.8-.7,1.3-1.7,1.3-2.7v-5.2c0,0-11.5.1-11.5.1v-11.3c-.1,0,11.3-.1,11.3-.1v-11c-.1,0,11-.1,11-.1v11.2c.1,0,11.7-.1,11.7-.1v-11.3c-.1,0-11.5.1-11.5.1ZM272.3,35.3c7.3-7.1,17-10.9,27.3-10.8,19.6.3,35.8,15.6,37,34.8,0,.5,0,1,0,1.4,0,8.1-3.2,14.2-6.6,20.7-2,3.7-4,7.5-5.4,11.8-1.8,5.4-1.5,10.9-1.2,16.3.2,2.9.3,5.8.2,8.7-.2,3.9-1,7.1-2.5,9.8-4,7.1-11.5,11.9-19.6,12.5-8.3.6-16.5-3-21.4-9.5-4.5-5.9-4.8-13.4-5.1-20.6-.2-4.2-.3-8.5-1.3-12.5-1.3-5.1-3.6-10-5.8-14.7-3.2-6.7-6.5-13.6-6.6-21.3-.1-10.1,3.8-19.6,11.1-26.7ZM260.3,223.6v-86.1l-1.8,1.7-44.4,42.7-44.5-42.7-1.8-1.7v86.5c0,4.3-3.5,7.7-7.7,7.7h-56c-4.3,0-7.7-3.5-7.7-7.7V53.8c0-4.3,3.5-7.7,7.7-7.7h57.5l6.2,6,46.2,44.4,40-38.4c-.1,1.3-.2,2.7-.1,4,.1,9.3,3.8,16.9,7.3,24.3,2.2,4.6,4.3,8.9,5.3,13.3.8,3.3,1,7.1,1.1,11.1.3,7.9.7,16.9,6.5,24.6,3.2,4.1,7.3,7.4,12.1,9.5l1,86.5h-19.4c-4.3,0-7.7-3.5-7.7-7.7ZM303.7,205.7v-11.3c-.1,0,11.4-.1,11.4-.1h0s-.2,0-.2,0v11.3c.1,0,.4,0,.4,0h-11.6ZM315.1,194.3v-10.7c-.1,0,11-.1,11-.1v10.7c.1,0-11,.1-11,.1Z"/>
        <rect class="st2" x="338.1" y="216.3" width="11.6" height="11.3" transform="translate(-2.6 4) rotate(-.7)"/>
      </g>
    </mask>
    <linearGradient id="linear-gradient" x1="110.9" y1="31" x2="329.3" y2="237.4" gradientUnits="userSpaceOnUse">
      <stop offset="0" stop-color="#fa0"/>
      <stop offset=".9" stop-color="#ff0064"/>
    </linearGradient>
    <linearGradient id="linear-gradient1" x1="15.7" y1="305.8" x2="106.4" y2="305.8" gradientUnits="userSpaceOnUse">
      <stop offset=".1" stop-color="#fa0"/>
      <stop offset=".3" stop-color="#fa0"/>
    </linearGradient>
    <linearGradient id="linear-gradient2" x1="120.7" y1="305.8" x2="211.6" y2="305.8" xlink:href="#linear-gradient1"/>
    <linearGradient id="linear-gradient3" x1="226" y1="305.8" x2="316.9" y2="305.8" xlink:href="#linear-gradient1"/>
    <linearGradient id="linear-gradient4" x1="324.9" y1="305.8" x2="415.8" y2="305.8" xlink:href="#linear-gradient1"/>
    <linearGradient id="linear-gradient5" x1="15" y1="388.7" x2="75.6" y2="388.7" xlink:href="#linear-gradient1"/>
    <linearGradient id="linear-gradient6" x1="82.1" y1="388.7" x2="142.6" y2="388.7" xlink:href="#linear-gradient1"/>
    <linearGradient id="linear-gradient7" x1="152.5" y1="388.7" x2="213.1" y2="388.7" xlink:href="#linear-gradient1"/>
    <linearGradient id="linear-gradient8" x1="222.3" y1="388.7" x2="279.8" y2="388.7" xlink:href="#linear-gradient1"/>
    <linearGradient id="linear-gradient9" x1="286.9" y1="388.7" x2="347.4" y2="388.7" xlink:href="#linear-gradient1"/>
    <linearGradient id="linear-gradient10" x1="357" y1="388.7" x2="417.5" y2="388.7" xlink:href="#linear-gradient1"/>
  </defs>
  <g class="st3">
    <rect class="st12" x="79.8" y="16.1" width="275.9" height="231.7"/>
  </g>
  <g>
    <polygon class="st4" points="35.8 303.5 46.8 318 48.2 319.9 73.9 319.9 75.3 318 86.2 303.5 86.2 346.2 106.4 346.2 106.4 265.4 86.2 265.4 61.1 299 35.8 265.4 15.7 265.4 15.7 346.2 35.8 346.2 35.8 303.5"/>
    <path class="st0" d="M211.6,326h-70.7v-10.1h60.6v-20.2h-60.6v-10.1h70.7v-20.2h-90.9v80.8h90.9v-20.2Z"/>
    <path class="st10" d="M316.9,326h-70.7v-10.1h60.6v-20.2h-60.6v-10.1h70.7v-20.2h-90.9v80.8h90.9v-20.2Z"/>
    <path class="st8" d="M360.2,346.2h20.2v-60.6h35.4v-20.2h-90.9v20.2h35.4v60.6Z"/>
    <path class="st9" d="M28.5,361.8h-13.5v53.8h60.6v-13.5H28.5v-40.3Z"/>
    <path class="st11" d="M129.2,361.8h-33.7c-7.4,0-13.5,6.1-13.5,13.5v26.9c0,7.4,6.1,13.5,13.5,13.5h33.7c7.4,0,13.5-6.1,13.5-13.5v-26.9c0-7.4-6.1-13.5-13.5-13.5ZM129.2,397.4c0,2.6-2.1,4.7-4.7,4.7h-24.2c-2.6,0-4.7-2.1-4.7-4.7v-17.5c0-2.6,2.1-4.7,4.7-4.7h24.2c2.6,0,4.7,2.1,4.7,4.7v17.5Z"/>
    <path class="st7" d="M152.5,375.2v26.9c0,7.4,6.1,13.5,13.5,13.5h47.1v-13.5h-42.4c-2.6,0-4.7-2.1-4.7-4.7v-17.5c0-2.6,2.1-4.7,4.7-4.7h42.4v-13.5h-47.1c-7.4,0-13.5,6.1-13.5,13.5Z"/>
    <path class="st6" d="M235.7,388.2v-26.4h-13.5v53.8h13.5v-26.4c8.8,8.8,17.6,17.6,26.5,26.4h17.6v-1.5l-25.5-25.4,25.5-25.4v-1.5h-17.6c-8.8,8.8-17.7,17.6-26.5,26.4Z"/>
    <path class="st5" d="M286.9,415.6h60.6v-13.5h-47.1v-6.7h40.4v-13.5h-40.4v-6.7h47.1v-13.5h-60.6v53.8Z"/>
    <path class="st1" d="M417.5,388.7v-13.5c0-7.4-6.1-13.5-13.5-13.5h-47.1v53.8h13.5v-13.5h19.3l10.7,13.5h17.2l-10.9-13.7c6.2-1.2,10.9-6.7,10.9-13.2ZM404.1,384.1c0,2.5-2,4.5-4.5,4.5h-29.1v-13.5h29.1c2.5,0,4.5,2,4.5,4.5v4.4Z"/>
  </g>
</svg>