<?xml version="1.0" encoding="UTF-8"?>
<svg id="Layer_1" xmlns="http://www.w3.org/2000/svg" version="1.1" xmlns:xlink="http://www.w3.org/1999/xlink" viewBox="0 0 432 78.6">
  <!-- Generator: Adobe Illustrator 30.3.0, SVG Export Plug-In . SVG Version: 2.1.3 Build 182)  -->
  <defs>
    <style>
      .st0 {
        fill: url(#linear-gradient2);
      }

      .st1 {
        fill: url(#linear-gradient10);
      }

      .st2 {
        fill: #fff;
      }

      .st3 {
        mask: url(#mask);
      }

      .st4 {
        fill: url(#linear-gradient1);
      }

      .st5 {
        fill: url(#linear-gradient9);
      }

      .st6 {
        fill: url(#linear-gradient8);
      }

      .st7 {
        fill: url(#linear-gradient7);
      }

      .st8 {
        fill: url(#linear-gradient4);
      }

      .st9 {
        fill: url(#linear-gradient5);
      }

      .st10 {
        fill: url(#linear-gradient3);
      }

      .st11 {
        fill: url(#linear-gradient6);
      }

      .st12 {
        fill: url(#linear-gradient);
      }
    </style>
    <mask id="mask" x="139.6" y="3.1" width="85.6" height="71.9" maskUnits="userSpaceOnUse">
      <g>
        <path class="st2" d="M164.7,15.2c0-.4-.3-.7-.7-.7h-15.7c-1,0-1.8.8-1.8,1.8v49.7c0,1,.8,1.8,1.8,1.8h14.5c1,0,1.8-.8,1.8-1.8v-28.3c0-.4-.3-.7-.7-.7s-.7.3-.7.7v28.3c0,.3-.2.5-.5.5h-14.5c-.3,0-.5-.2-.5-.5V16.4c0-.3.2-.5.5-.5h15.7c.4,0,.7-.3.7-.7Z"/>
        <rect class="st2" x="150.3" y="18.4" width="12.2" height="1.7" rx=".6" ry=".6"/>
        <rect class="st2" x="150.3" y="21.1" width="12.2" height="1.7" rx=".6" ry=".6"/>
        <rect class="st2" x="150.3" y="23.9" width="12.2" height="1.7" rx=".6" ry=".6"/>
        <path class="st2" d="M149.4,36.4c-.4,0-.7.3-.7.7v10.8c0,.4.3.7.7.7h2c.4,0,.7-.3.7-.7v-10.8c0-.4-.3-.7-.7-.7h-2ZM151.1,46c0,.3-.3.6-.6.6s-.6-.3-.6-.6v-5c0-.3.3-.6.6-.6s.6.3.6.6v5Z"/>
        <path class="st2" d="M199.6,23.1c.7,1.5,1.5,3.1,1.9,4.9.3,1.4.4,2.8.5,4.2,0,2.1.2,4,1.2,5.4,1.1,1.5,3,2.3,5,2.2,1.9-.1,3.6-1.3,4.5-2.9.3-.6.5-1.3.6-2.2,0-.8,0-1.6,0-2.5,0-1.8-.2-3.8.5-5.8.5-1.5,1.2-2.7,1.8-3.9,1-1.9,1.8-3.5,1.8-5.5,0-.1,0-.2,0-.4-.3-5-4.5-8.9-9.6-9-2.7,0-5.2.9-7.1,2.8-1.9,1.8-2.9,4.3-2.9,6.9,0,2,.9,3.8,1.9,5.8ZM207.5,11.5c2.4,0,4,1.9,4.4,4.2.2,1.3.4,2.9,0,4.2-.5,1.5-1.5,2.8-2.4,4.2-.6.9-1.1,1.9-1.6,2.8-.4,1-.8,2-.7,3.1-.4-1-.4-2.2-.2-3.4.2-1,.4-2,.7-2.9.2-.6.4-1.1.6-1.7.3-.9-.2-1.6-1.1-1.6-.2,0-.5,0-.7,0-2-.3-3.5-1.9-3.8-3.8-.4-2.8,1.8-5.2,4.6-5.1Z"/>
        <path class="st2" d="M206.9,18.5c1.9.3,3.5-1.3,3.1-3.1-.2-1-1.1-1.8-2.1-2-1.9-.3-3.5,1.3-3.1,3.1.2,1,1.1,1.8,2.1,2Z"/>
        <path class="st2" d="M223.3,68.7v-3.5s-3.6,0-3.6,0v-3.5s-3.6,0-3.6,0v-3.4s3.5,0,3.5,0v-3.5s-3.6,0-3.6,0v-3.4s-3.5,0-3.5,0v-8.8c1.6-.9,3-2.2,3.9-3.9.6-1.1,1-2.4,1.1-4,0-1,0-2,0-2.9,0-1.5-.2-3,.3-4.2.4-1.2,1-2.2,1.5-3.3,1.2-2.2,2.5-4.7,2.3-8-.4-7.1-6.4-12.8-13.7-12.9-3.8,0-7.4,1.4-10.1,4-.6.6-1.2,1.3-1.7,2h0l-4,3.8-10.8,10.1-10.8-10.1-4-3.8h-20.8c-2.4,0-4.4,2-4.4,4.4v54.5c0,2.4,2,4.4,4.4,4.4h20.4c2.4,0,4.4-2,4.4-4.4v-18.8l10.8,10.1,10.8-10.1v18.8c0,2.4,2,4.4,4.4,4.4h9.2l1.7,1.7c.3.3.9.4,1.3,0l3.8-3.2c.3-.2.4-.5.4-.8v-1.6s-3.6,0-3.6,0v-3.5s3.5,0,3.5,0v-3.4s3.4,0,3.4,0v3.5s3.6,0,3.6,0v3.5s3.6,0,3.6,0ZM199.3,9c2.3-2.2,5.3-3.4,8.5-3.3,6.1.1,11.1,4.8,11.5,10.8,0,.1,0,.3,0,.4,0,2.5-1,4.4-2,6.4-.6,1.1-1.2,2.3-1.7,3.7-.6,1.7-.5,3.4-.4,5.1,0,.9.1,1.8,0,2.7,0,1.2-.3,2.2-.8,3-1.2,2.2-3.6,3.7-6.1,3.9-2.6.2-5.1-.9-6.6-2.9-1.4-1.8-1.5-4.2-1.6-6.4,0-1.3-.1-2.6-.4-3.9-.4-1.6-1.1-3.1-1.8-4.5-1-2.1-2-4.2-2.1-6.6,0-3.1,1.2-6.1,3.4-8.3ZM195.6,67.4v-26.7l-.5.5-13.8,13.2-13.8-13.2-.5-.5v26.8c0,1.3-1.1,2.4-2.4,2.4h-17.4c-1.3,0-2.4-1.1-2.4-2.4V14.8c0-1.3,1.1-2.4,2.4-2.4h17.8l1.9,1.8,14.3,13.8,12.4-11.9c0,.4,0,.8,0,1.3,0,2.9,1.2,5.2,2.3,7.5.7,1.4,1.3,2.7,1.7,4.1.2,1,.3,2.2.3,3.4.1,2.5.2,5.3,2,7.6,1,1.3,2.3,2.3,3.7,2.9l.3,26.8h-6c-1.3,0-2.4-1.1-2.4-2.4ZM209,61.9v-3.5s3.5,0,3.5,0h0s0,0,0,0v3.5s-3.5,0-3.5,0ZM212.6,58.3v-3.3s3.4,0,3.4,0v3.3s-3.4,0-3.4,0Z"/>
      </g>
    </mask>
    <linearGradient id="linear-gradient" x1="149.3" y1="7.7" x2="217" y2="71.7" gradientUnits="userSpaceOnUse">
      <stop offset="0" stop-color="#fa0"/>
      <stop offset=".9" stop-color="#ff0064"/>
    </linearGradient>
    <linearGradient id="linear-gradient1" x1="4.7" y1="41.6" x2="33.4" y2="41.6" gradientUnits="userSpaceOnUse">
      <stop offset=".1" stop-color="#fa0"/>
      <stop offset=".3" stop-color="#fa0"/>
    </linearGradient>
    <linearGradient id="linear-gradient2" x1="37.9" y1="41.6" x2="66.6" y2="41.6" xlink:href="#linear-gradient1"/>
    <linearGradient id="linear-gradient3" x1="71.1" y1="41.6" x2="99.9" y2="41.6" xlink:href="#linear-gradient1"/>
    <linearGradient id="linear-gradient4" x1="102.4" y1="41.6" x2="131.1" y2="41.6" xlink:href="#linear-gradient1"/>
    <linearGradient id="linear-gradient5" x1="230.8" y1="41.8" x2="260.4" y2="41.8" gradientUnits="userSpaceOnUse">
      <stop offset=".7" stop-color="#ff0064"/>
      <stop offset=".9" stop-color="#ff0064"/>
    </linearGradient>
    <linearGradient id="linear-gradient6" x1="263.6" y1="41.8" x2="293.2" y2="41.8" xlink:href="#linear-gradient5"/>
    <linearGradient id="linear-gradient7" x1="298" x2="327.6" xlink:href="#linear-gradient5"/>
    <linearGradient id="linear-gradient8" x1="332.1" x2="360.2" xlink:href="#linear-gradient5"/>
    <linearGradient id="linear-gradient9" x1="363.6" x2="393.2" xlink:href="#linear-gradient5"/>
    <linearGradient id="linear-gradient10" x1="397.9" x2="427.4" xlink:href="#linear-gradient5"/>
  </defs>
  <g class="st3">
    <rect class="st12" x="139.6" y="3.1" width="85.6" height="71.9"/>
  </g>
  <g>
    <polygon class="st4" points="19.1 39.4 11.1 28.8 4.7 28.8 4.7 54.3 11.1 54.3 11.1 40.8 14.6 45.4 15 46 23.1 46 23.6 45.4 27 40.8 27 54.3 33.4 54.3 33.4 28.8 27 28.8 19.1 39.4"/>
    <path class="st0" d="M37.9,54.3h28.7v-6.4h-22.3v-3.2h19.1v-6.4h-19.1v-3.2h22.3v-6.4h-28.7v25.5Z"/>
    <path class="st10" d="M71.1,54.3h28.7v-6.4h-22.3v-3.2h19.1v-6.4h-19.1v-3.2h22.3v-6.4h-28.7v25.5Z"/>
    <path class="st8" d="M102.4,28.8v6.4h11.2v19.1h6.4v-19.1h11.2v-6.4h-28.7Z"/>
  </g>
  <g>
    <path class="st9" d="M237.4,28.7h-6.6v26.3h29.6v-6.6h-23v-19.7Z"/>
    <path class="st11" d="M286.6,28.7h-16.4c-3.6,0-6.6,3-6.6,6.6v13.1c0,3.6,3,6.6,6.6,6.6h16.4c3.6,0,6.6-3,6.6-6.6v-13.1c0-3.6-3-6.6-6.6-6.6ZM286.6,46.1c0,1.3-1,2.3-2.3,2.3h-11.8c-1.3,0-2.3-1-2.3-2.3v-8.5c0-1.3,1-2.3,2.3-2.3h11.8c1.3,0,2.3,1,2.3,2.3v8.5Z"/>
    <path class="st7" d="M298,35.3v13.1c0,3.6,3,6.6,6.6,6.6h23v-6.6h-20.7c-1.3,0-2.3-1-2.3-2.3v-8.5c0-1.3,1-2.3,2.3-2.3h20.7v-6.6h-23c-3.6,0-6.6,3-6.6,6.6Z"/>
    <path class="st6" d="M338.6,41.6v-12.9h-6.6v26.3h6.6v-12.9c4.3,4.3,8.6,8.6,12.9,12.9h8.6v-.7l-12.5-12.4,12.5-12.4v-.7h-8.6c-4.3,4.3-8.6,8.6-12.9,12.9Z"/>
    <path class="st5" d="M363.6,55h29.6v-6.6h-23v-3.3h19.7v-6.6h-19.7v-3.3h23v-6.6h-29.6v26.3Z"/>
    <path class="st1" d="M427.4,41.8v-6.6c0-3.6-3-6.6-6.6-6.6h-23v26.3h6.6v-6.6h9.4l5.2,6.6h8.4l-5.3-6.7c3-.6,5.3-3.3,5.3-6.4ZM420.9,39.6c0,1.2-1,2.2-2.2,2.2h-14.2v-6.6h14.2c1.2,0,2.2,1,2.2,2.2v2.1Z"/>
  </g>
</svg>